HIERARCHY
ROOT Hips
{
  OFFSET 279.157 85.6768 304.565
  CHANNELS 6 Xposition Yposition Zposition Zrotation Xrotation Yrotation
  JOINT LeftUpLeg
  {
    OFFSET 8.64259 1.95398 -2.38835
    CHANNELS 3 Zrotation Xrotation Yrotation
    JOINT LeftLeg
    {
      OFFSET 43.7702 0 0
      CHANNELS 3 Zrotation Xrotation Yrotation
      JOINT LeftFoot
      {
        OFFSET 40.6238 0 0
        CHANNELS 3 Zrotation Xrotation Yrotation
        JOINT LeftToeBase
        {
          OFFSET 12.7242 0 0
          CHANNELS 3 Zrotation Xrotation Yrotation
          End Site
          {
            OFFSET 0 0 0
          }
        }
      }
    }
  }
  JOINT RightUpLeg
  {
    OFFSET -8.2249 1.95398 -2.59336
    CHANNELS 3 Zrotation Xrotation Yrotation
    JOINT RightLeg
    {
      OFFSET 43.5653 0 0
      CHANNELS 3 Zrotation Xrotation Yrotation
      JOINT RightFoot
      {
        OFFSET 40.6238 0 0
        CHANNELS 3 Zrotation Xrotation Yrotation
        JOINT RightToeBase
        {
          OFFSET 12.7242 0 0
          CHANNELS 3 Zrotation Xrotation Yrotation
          End Site
          {
            OFFSET 0 0 0
          }
        }
      }
    }
  }
  JOINT Spine
  {
    OFFSET 0.165834 0.87714 6.61349
    CHANNELS 3 Zrotation Xrotation Yrotation
    JOINT Spine1
    {
      OFFSET 7.38963 1.71661e-005 0
      CHANNELS 3 Zrotation Xrotation Yrotation
      JOINT Spine2
      {
        OFFSET 11.9445 1.14441e-005 0
        CHANNELS 3 Zrotation Xrotation Yrotation
        JOINT Spine3
        {
          OFFSET 14.7254 4.19617e-005 0
          CHANNELS 3 Zrotation Xrotation Yrotation
          JOINT Spine4
          {
            OFFSET 10.9679 0 0
            CHANNELS 3 Zrotation Xrotation Yrotation
            JOINT RightShoulder
            {
              OFFSET 2.46616 -1.6653 3.69651
              CHANNELS 3 Zrotation Xrotation Yrotation
              JOINT RightArm
              {
                OFFSET 13.0012 0 0
                CHANNELS 3 Zrotation Xrotation Yrotation
                JOINT RightForeArm
                {
                  OFFSET 28.7848 1.52588e-005 0
                  CHANNELS 3 Zrotation Xrotation Yrotation
                  JOINT RightHand
                  {
                    OFFSET 26.5688 1.52588e-005 0
                    CHANNELS 3 Zrotation Xrotation Yrotation
                    End Site
                    {
                      OFFSET 0 0 0
                    }
                  }
                }
              }
            }
            JOINT LeftShoulder
            {
              OFFSET 2.38034 -1.29275 -3.7523
              CHANNELS 3 Zrotation Xrotation Yrotation
              JOINT LeftArm
              {
                OFFSET 16.3182 6.10351e-005 0
                CHANNELS 3 Zrotation Xrotation Yrotation
                JOINT LeftForeArm
                {
                  OFFSET 27.0901 0 0
                  CHANNELS 3 Zrotation Xrotation Yrotation
                  JOINT LeftHand
                  {
                    OFFSET 24.5451 1.52588e-005 0
                    CHANNELS 3 Zrotation Xrotation Yrotation
                    End Site
                    {
                      OFFSET 0 0 0
                    }
                  }
                }
              }
            }
            JOINT Neck
            {
              OFFSET 5.0226 -0.0266342 0
              CHANNELS 3 Zrotation Xrotation Yrotation
              JOINT Head
              {
                OFFSET 6.69364 2.86102e-005 0
                CHANNELS 3 Zrotation Xrotation Yrotation
                End Site
                {
                  OFFSET 0 0 0
                }
              }
            }
          }
        }
      }
    }
  }
}
MOTION
Frames:	15
Frame Time:	0.0416667
34.9824 93.9359 -262.518 64.7346 -73.445 66.3404 -168.57 -7.88474 95.7702 -24.8742 18.4363 -0.285556 70.5805 11.3893 5.85763 57.3696 14.8712 3.15471 177.78 49.2334 94.5684 -77.7299 4.38313 -2.29452 79.6628 -10.3027 -3.33759 12.1879 3.45435 8.19266 -2.40259 7.75274 -90.6518 11.359 -5.08473 -0.788238 -0.302044 -5.11448 -0.563115 -22.904 -4.61232 -2.28299 -2.89136 -4.6123 -2.28298 96.4879 -13.4848 -97.895 60.6264 -14.794 46.9786 -37.5069 -16.4582 -65.3068 -28.2726 1.73304 -23.865 -87.603 -31.6642 78.3592 -7.97853 -10.7719 -56.6469 64.1622 -10.7589 -100.437 28.6323 -0.580927 -6.13782 33.2317 2.08313 -8.96918 -13.0993 5.34286 5.24798 
35.5244 95.2717 -255.138 67.1533 -77.4457 68.3295 -169.451 -15.4853 95.2615 -18.5521 17.4977 0.541687 57.0105 1.02632 4.5698 60.4811 16.055 -0.94916 -179.905 47.4224 93.8371 -66.2269 1.33605 -2.66286 76.1379 -8.36561 -3.36316 14.2651 3.06991 7.47141 -2.56381 7.91059 -90.7622 11.0393 -5.45699 -0.992761 -0.620318 -5.49539 -0.750925 -23.2306 -4.90583 -2.59048 -3.21799 -4.90582 -2.59047 95.772 -12.3745 -100.296 58.4843 -13.7488 49.9095 -36.068 -15.5686 -64.6724 -26.2891 1.66477 -24.3259 -87.1908 -30.7126 78.8875 -7.32948 -14.94 -53.4252 59.8984 -10.959 -102.223 34.8355 -0.506544 -5.55662 35.1452 4.78175 -6.88552 -16.5665 6.97807 5.19393 
36.1916 96.3615 -246.755 58.3009 -79.6992 61.8623 -170.522 -17.8266 96.0666 -18.3817 16.6732 2.70554 50.2287 -5.21737 1.79109 37.6188 4.85961 -3.4667 -179.522 45.5425 96.0454 -52.3733 -4.37676 -1.90828 71.3763 -6.52281 -4.23744 16.9709 2.11687 8.25254 -2.51153 7.87834 -91.2387 11.0756 -5.57378 -1.92688 -0.58448 -5.65315 -1.67903 -23.1822 -4.73686 -3.51548 -3.16954 -4.73685 -3.51548 95.3452 -10.7447 -102.217 57.2757 -12.0421 51.6115 -33.6642 -14.4429 -64.7179 -25.9123 2.24564 -26.5343 -86.3103 -30.2677 80.4603 -6.46211 -15.5413 -52.5906 59.2136 -11.7343 -102.348 30.3822 -0.82059 -7.20924 36.5788 7.08206 -4.61096 -19.0606 8.12885 4.83771 
36.7218 96.9751 -238.525 51.7971 -80.6254 56.1644 -171.896 -18.1783 95.1005 -23.6379 18.5195 4.55077 52.0913 -5.07538 2.49765 16.3893 -5.94847 -2.16795 -179.808 42.7889 96.489 -39.2906 -11.2742 -0.912599 69.799 -6.08311 -2.97319 16.3663 2.11848 8.9256 -2.49656 7.80156 -91.5365 11.211 -5.68301 -2.50018 -0.449456 -5.78749 -2.24701 -23.038 -4.66908 -4.09435 -3.02538 -4.66908 -4.09436 94.411 -9.81246 -105.389 56.1183 -9.03571 53.2302 -32.5362 -14.4297 -65.7741 -28.6137 3.10843 -28.1259 -86.3496 -30.839 80.5257 -3.48892 -12.8938 -50.921 49.5837 -11.1071 -100.115 21.6064 -4.83451 -26.4816 35.314 8.78344 -2.76699 -19.4214 8.89584 4.68091 
36.8441 96.8652 -230.779 47.5959 -81.4118 51.2043 -171.992 -18.2788 93.9621 -30.3236 19.9957 4.16249 58.051 -0.632264 4.63703 8.96578 -8.81009 -4.86931 -179.517 40.2383 96.2696 -29.2232 -17.2663 -0.695221 69.5841 -6.46829 -3.27954 15.8329 1.76645 10.9254 -2.38576 7.68355 -91.5017 11.4509 -5.44786 -2.43864 -0.210408 -5.54988 -2.19597 -22.7937 -4.46331 -3.96472 -2.78103 -4.46331 -3.96472 93.4733 -12.0021 -106.852 52.7565 -6.43979 52.7428 -28.9389 -14.0471 -65.8235 -25.943 2.82358 -28.0042 -86.4163 -30.6977 80.3633 -3.24059 -6.73901 -50.1083 51.0733 -9.3579 -97.3094 24.2055 -4.93568 -24.6822 32.6454 8.64076 -3.82547 -17.6672 8.9476 6.76117 
36.6576 96.4026 -223.436 51.5989 -82.6061 53.6848 -171.235 -17.8302 93.5215 -37.9216 18.9161 2.97477 59.7037 0.661401 4.05656 12.5232 -6.87305 -5.06128 179.672 37.718 96.3122 -25.0354 -18.9616 -0.0362303 69.0038 -6.33741 -4.19853 17.1504 1.33291 11.3492 -2.28372 7.6925 -91.348 11.4431 -5.17311 -2.16033 -0.219016 -5.26314 -1.93007 -22.8008 -4.28477 -3.6167 -2.78814 -4.28477 -3.6167 92.8335 -15.3669 -106.789 48.791 -4.09334 49.8028 -27.881 -14.1488 -66.1099 -26.8398 2.86154 -27.0169 -87.3555 -33.4384 79.2783 -1.64738 -0.424268 -48.2427 57.7479 -7.9448 -96.3003 34.0266 -1.65345 -8.90234 30.7421 8.36926 -3.5606 -16.8538 8.59847 6.64122 
36.2681 95.764 -216.231 64.346 -83.818 64.8837 -170.472 -15.6599 93.4706 -48.0596 15.8874 2.35347 55.3635 -2.6228 2.60189 23.3484 -1.37371 -5.63233 178.526 35.9413 96.4937 -27.0123 -16.5873 0.677696 67.0607 -4.74824 -4.25046 19.137 2.20767 5.15263 -2.22184 7.81122 -91.126 11.2179 -4.94552 -1.75511 -0.444476 -5.01794 -1.53529 -23.0281 -4.18933 -3.16202 -3.01548 -4.18931 -3.16201 91.7634 -20.027 -107.157 43.8738 -1.51208 45.2045 -30.4689 -16.7063 -67.3227 -31.2994 3.42972 -27.2389 -88.4659 -37.8227 78.3911 0.249724 5.99163 -45.0694 60.634 -7.45396 -94.4525 31.7201 -0.97791 -7.28599 30.6056 8.01108 -3.2 -17.4017 8.19668 5.72692 
36.103 95.0523 -208.913 80.59 -84.7553 81.1096 -168.336 -11.536 95.325 -59.3839 14.4573 1.82895 52.2291 -4.79766 6.00455 28.6664 1.24285 -5.85811 177.385 34.727 97.2424 -32.4807 -17.9263 1.47149 60.6837 -0.185946 -3.86804 15.5185 2.81207 6.96051 -2.02995 7.91778 -91.0525 11.008 -4.52858 -1.66128 -0.655917 -4.59729 -1.46001 -23.2307 -3.8199 -2.94677 -3.21804 -3.8199 -2.94677 90.7857 -24.4372 -107.392 39.4114 2.17978 39.8267 -31.8415 -19.044 -68.6128 -33.1881 3.16175 -25.5445 -90.157 -42.5848 76.7571 0.547898 12.1237 -40.4981 61.0858 -6.51565 -92.5135 28.3 -1.53518 -9.60346 29.0606 7.27979 -3.34666 -16.523 7.56714 5.74323 
35.8031 93.9675 -201.813 95.7544 -85.1766 96.5864 -166.578 -5.72624 97.3945 -70.9824 7.97322 2.08673 55.084 -2.8769 5.32297 25.6064 -0.0924272 -6.26016 175.45 35.0507 98.8229 -44.4001 -19.3169 2.59777 68.0655 -4.70142 -5.06591 5.80945 5.47431 7.60114 -1.79954 7.95097 -91.0936 10.9409 -4.08863 -1.78836 -0.724586 -4.16336 -1.60645 -23.2875 -3.36221 -2.93516 -3.27485 -3.36221 -2.93516 89.6336 -27.1902 -108.637 36.0635 7.35598 34.2505 -30.8958 -19.5136 -68.9463 -35.3748 3.37183 -24.7033 -92.0183 -48.8388 75.4286 0.855889 16.7741 -34.4928 63.1001 -4.30024 -91.2844 31.8125 -0.0046654 -4.09064 25.9856 7.4362 -0.17804 -13.4981 6.87351 3.41891 
35.3226 93.1536 -195.239 106.535 -85.4983 109.417 -165.84 2.01731 99.9417 -81.4616 3.82659 3.15655 57.9418 -0.720491 5.51178 25.8148 0.264647 -7.31754 174.228 32.5028 101.95 -49.9509 -19.507 3.25167 71.3897 -7.92919 -7.22296 13.1544 2.97252 8.92938 -1.40139 8.02821 -91.3502 10.7801 -3.41343 -2.37099 -0.888219 -3.51445 -2.2184 -23.4285 -2.54339 -3.28702 -3.41585 -2.5434 -3.28703 89.5703 -30.0912 -107.577 34.3756 10.789 26.4297 -31.1885 -19.524 -70.2992 -34.7299 2.95642 -23.522 -92.47 -52.1967 75.5972 -3.84874 20.4748 -28.5695 60.4551 -0.720106 -88.8427 30.7998 -1.05081 -7.57348 24.2295 6.73781 1.78221 -10.3147 5.67142 2.57154 
34.8854 92.7113 -188.926 116.091 -85.4626 122.765 -167.412 11.3902 103.184 -90.5339 3.61526 4.61752 60.0396 1.24459 6.96734 23.956 -0.533076 -7.48672 173.75 27.6019 105.841 -50.8597 -19.194 4.43078 74.561 -10.9687 -8.48713 13.9925 2.79534 8.77569 -0.967453 8.17268 -91.7788 10.4773 -2.743 -3.29074 -1.19464 -2.8851 -3.16693 -23.7062 -1.6281 -3.96212 -3.69356 -1.62809 -3.96212 89.134 -33.1624 -107.236 33.4533 12.4736 16.3724 -26.5958 -17.1663 -69.6254 -35.3707 2.97501 -21.749 -93.4122 -54.7076 74.8673 -9.81158 20.1242 -19.7826 62.4061 2.39816 -87.7223 26.0749 -1.33807 -9.24593 24.8992 6.29452 3.73029 -9.47159 4.70307 0.410425 
34.6948 92.2408 -182.423 113.77 -85.773 122.092 -171.132 20.2725 103.374 -96.981 5.10185 5.3393 61.9648 3.0718 8.33537 22.4661 -1.41579 -6.80003 173.939 23.4008 107.589 -51.6521 -18.7996 5.15133 78.458 -14.1347 -9.20848 14.9406 2.01044 10.8457 -0.634673 8.18453 -91.9963 10.4532 -2.17952 -3.77423 -1.22108 -2.3434 -3.67481 -23.7162 -0.945633 -4.2539 -3.70349 -0.945632 -4.2539 88.7396 -33.8391 -107.728 33.4651 12.5584 6.15208 -25.9155 -15.6499 -71.7542 -33.9843 3.16884 -22.7398 -93.1951 -55.5333 75.3722 -16.5352 17.1725 -8.3522 65.5478 2.6251 -87.6173 25.71 -1.73723 -10.9431 26.719 5.81395 4.18331 -10.8306 4.00876 0.171172 
34.2931 91.8513 -175.891 111.952 -85.3332 118.427 -174.638 27.2099 100.373 -99.5413 8.35214 5.52987 63.7973 5.30914 12.4487 22.0584 -0.547983 -10.5196 173.96 18.7131 105.983 -52.6512 -19.6679 4.92447 82.1693 -17.1567 -9.76896 16.0349 1.80345 10.5689 -0.442853 8.13311 -91.8382 10.5679 -1.72662 -3.49847 -1.10636 -1.87884 -3.41922 -23.6055 -0.596266 -3.8551 -3.59286 -0.596259 -3.85511 87.8868 -33.302 -109.53 31.8545 11.9729 -1.28371 -26.5643 -14.9335 -74.7214 -32.5046 2.42051 -20.6158 -92.5322 -56.5914 76.5418 -19.9894 14.5589 3.9803 67.4349 -0.488926 -89.4868 24.8061 -1.97904 -12.1713 26.6103 5.03329 4.89922 -10.3281 2.97991 0.418884 
33.783 92.0815 -169.169 103.219 -85.7366 107.377 -177.238 33.9124 97.3258 -97.568 4.37922 5.59117 67.3709 6.80193 8.57272 21.871 -0.431837 -11.2267 174.373 13.0971 103.891 -50.0269 -20.9454 4.3609 84.1533 -19.464 -10.9592 17.69 1.03047 12.1302 -0.054189 7.88676 -91.4389 11.0815 -0.775386 -2.78888 -0.592129 -0.897318 -2.75211 -23.1031 0.098236 -2.89292 -3.09045 0.0982448 -2.89292 86.5219 -34.9643 -111.367 26.7701 8.7208 -5.74698 -28.1062 -13.103 -78.9509 -34.8841 2.55918 -20.1439 -89.9257 -56.4056 80.1255 -19.7003 16.4857 14.4902 67.5685 -4.49239 -90.8796 26.3986 -1.4646 -9.71889 25.6803 2.30257 2.16478 -9.86165 1.28293 2.06614 
33.3014 92.7988 -162.104 92.7892 -87.4974 94.1529 -177.454 38.4215 94.1137 -91.6753 2.82938 5.17239 70.4505 8.35811 8.13936 20.937 -1.06964 -10.3848 175.01 7.01867 101.194 -46.2524 -20.607 3.23052 85.2886 -19.6013 -9.16164 17.6883 0.791827 13.1929 0.695231 7.72263 -91.143 11.4293 0.849782 -2.36022 -0.243636 0.745122 -2.39532 -22.7673 1.51968 -1.99596 -2.75462 1.51968 -1.99596 88.7399 -30.4136 -109.079 25.4765 5.20384 -8.82771 -29.9851 -10.4416 -82.9802 -32.1499 2.62107 -21.9344 -89.3637 -55.9593 80.8273 -17.9913 20.1419 21.4347 65.1935 -7.38601 -90.8358 27.0717 -1.43315 -9.46446 26.2774 0.121112 4.27635 -10.3398 -1.47013 0.12637 
